<?xml version="1.0" encoding="UTF-8"?>
<svg width="505px" height="83px" viewBox="0 0 505 83" version="1.1" xmlns="http://www.w3.org/2000/svg" xmlns:xlink="http://www.w3.org/1999/xlink">
    <!-- Generator: Sketch 47.1 (45422) - http://www.bohemiancoding.com/sketch -->
    <title>Group</title>
    <desc>Created with Sketch.</desc>
    <defs></defs>
    <g id="Page-1" stroke="none" stroke-width="1" fill="none" fill-rule="evenodd">
        <g id="Group" fill="#E48CA4">
            <path d="M99.2834677,48 C91.7701985,48 86.8989581,51.6615811 86.8989581,57.4868239 C86.8989581,67.7226075 101.884215,65.2260749 101.884215,69.0124827 C101.884215,70.0527046 100.976017,70.5104022 99.5724396,70.5104022 C96.641439,70.5104022 91.5225084,68.4715673 88.5502261,65.9750347 L85,73.2149792 C88.839198,76.1692094 94.4535089,77.8751734 99.4898762,77.8751734 C106.012385,77.8751734 111.667977,75.0041609 111.667977,68.5131761 C111.667977,57.9445215 96.6827207,60.2330097 96.6827207,56.5714286 C96.6827207,55.6976422 97.3845095,55.3647712 98.4578337,55.3647712 C100.976017,55.3647712 105.475722,57.1539528 108.406723,58.776699 L111.874386,51.4535368 C108.613132,49.3730929 103.865736,48 99.2834677,48 Z M132.556517,77.5839112 L143.991547,77.5839112 L133.051897,60.149792 L143.372322,48.4160888 L132.350108,48.4160888 L123.722233,58.5270458 L123.722233,48.4160888 L114.144879,48.4160888 L114.144879,77.5839112 L123.722233,77.5839112 L123.722233,70.7184466 L126.529389,67.556172 L132.556517,77.5839112 Z M170.535679,55.739251 L170.535679,48.4160888 L146.055632,48.4160888 L146.055632,77.5839112 L170.907214,77.5839112 L170.907214,70.260749 L155.632986,70.260749 L155.632986,66.6407767 L169.173383,66.6407767 L169.173383,59.3176144 L155.632986,59.3176144 L155.632986,55.739251 L170.535679,55.739251 Z M198.731079,56.0305132 L198.731079,48.4160888 L172.682328,48.4160888 L172.682328,56.0305132 L180.897385,56.0305132 L180.897385,77.5839112 L190.47474,77.5839112 L190.47474,56.0305132 L198.731079,56.0305132 Z M215.243759,48.1248266 C206.161785,48.1248266 199.556713,54.3661581 199.556713,62.9375867 C199.556713,71.6338419 205.996658,78 214.872223,78 C219.330647,78 224.243169,75.7115118 227.463141,72.1747573 L221.931394,66.2246879 C220.032436,68.2635229 217.431689,69.5533981 215.367604,69.5533981 C211.899941,69.5533981 209.381757,66.7239945 209.381757,62.8127601 C209.381757,58.9431345 211.899941,56.1553398 215.367604,56.1553398 C217.596815,56.1553398 220.197562,57.6948682 221.931394,60.0665742 L227.463141,53.4507628 C224.490859,50.2052705 219.6609,48.1248266 215.243759,48.1248266 Z M257.516218,77.5839112 L257.516218,48.4160888 L247.938864,48.4160888 L247.938864,59.7337032 L238.980735,59.7337032 L238.980735,48.4160888 L229.403381,48.4160888 L229.403381,77.5839112 L238.980735,77.5839112 L238.980735,67.0568655 L247.938864,67.0568655 L247.938864,77.5839112 L257.516218,77.5839112 Z M272.584038,48.4576976 L284.266758,48.4576976 C292.688225,48.4576976 299.12817,54.740638 299.12817,63.0208044 C299.12817,71.3009709 292.646943,77.5839112 284.142913,77.5839112 L272.584038,77.5839112 L272.584038,48.4576976 Z M275.886574,51.6615811 L275.886574,74.4216366 L284.30804,74.4216366 C290.747985,74.4216366 295.784352,69.5533981 295.784352,63.0624133 C295.784352,56.5298197 290.665422,51.6615811 284.184195,51.6615811 L275.886574,51.6615811 Z M324.764105,51.6615811 L324.764105,48.4576976 L305.155298,48.4576976 L305.155298,77.5839112 L325.300767,77.5839112 L325.300767,74.4216366 L308.457834,74.4216366 L308.457834,64.4355062 L323.030273,64.4355062 L323.030273,61.2316227 L308.457834,61.2316227 L308.457834,51.6615811 L324.764105,51.6615811 Z M332.029684,48.4576976 L344.207785,48.4576976 C350.028504,48.4576976 353.537448,51.1622746 353.537448,55.739251 C353.537448,59.1511789 351.597209,61.6061026 348.212109,62.3134535 C352.381561,62.9375867 354.817181,65.6837725 354.817181,69.6782247 C354.817181,74.629681 350.936701,77.5839112 344.414193,77.5839112 L332.029684,77.5839112 L332.029684,48.4576976 Z M335.332219,51.6615811 L335.332219,61.0235784 L344.042658,61.0235784 C347.923137,61.0235784 350.193631,59.3176144 350.193631,56.2801664 C350.193631,53.3259362 347.923137,51.6615811 344.042658,51.6615811 L335.332219,51.6615811 Z M335.332219,64.185853 L335.332219,74.4216366 L344.042658,74.4216366 C348.748771,74.4216366 351.473363,72.5492372 351.473363,69.220527 C351.473363,66.0582524 348.748771,64.185853 344.042658,64.185853 L335.332219,64.185853 Z M385.200511,48.4576976 L381.897975,48.4576976 L381.897975,65.6005548 C381.897975,71.259362 378.595439,74.5464632 373.104973,74.5464632 C367.614508,74.5464632 364.229408,71.259362 364.229408,65.6005548 L364.229408,48.4576976 L360.926872,48.4576976 L360.926872,65.6005548 C360.926872,73.1733703 365.509141,77.7503467 373.104973,77.7503467 C380.659524,77.7503467 385.200511,73.1733703 385.200511,65.6005548 L385.200511,48.4576976 Z M413.437193,63.3536755 L413.437193,72.1331484 C411.207981,73.6726768 408.442107,74.5880721 405.84136,74.5880721 C399.236289,74.5880721 393.910949,69.4701803 393.910949,63.0208044 C393.910949,56.6130374 399.195007,51.4951456 405.800079,51.4951456 C409.020051,51.4951456 412.198742,52.7434119 414.551799,54.8654646 L416.450757,52.368932 C413.684883,49.9140083 409.804403,48.3744799 405.800079,48.3744799 C397.296049,48.3744799 390.567132,54.8238558 390.567132,63.0208044 C390.567132,71.2177531 397.254767,77.7503467 405.634952,77.7503467 C409.515431,77.7503467 413.519756,76.2108183 416.368193,73.9223301 L416.368193,63.3536755 L413.437193,63.3536755 Z M444.522312,63.3536755 L444.522312,72.1331484 C442.2931,73.6726768 439.527226,74.5880721 436.926479,74.5880721 C430.321408,74.5880721 424.996068,69.4701803 424.996068,63.0208044 C424.996068,56.6130374 430.280126,51.4951456 436.885198,51.4951456 C440.10517,51.4951456 443.283861,52.7434119 445.636918,54.8654646 L447.535876,52.368932 C444.770002,49.9140083 440.889522,48.3744799 436.885198,48.3744799 C428.381168,48.3744799 421.652251,54.8238558 421.652251,63.0208044 C421.652251,71.2177531 428.339886,77.7503467 436.720071,77.7503467 C440.60055,77.7503467 444.604875,76.2108183 447.453312,73.9223301 L447.453312,63.3536755 L444.522312,63.3536755 Z M475.070769,51.6615811 L475.070769,48.4576976 L455.461962,48.4576976 L455.461962,77.5839112 L475.607431,77.5839112 L475.607431,74.4216366 L458.764498,74.4216366 L458.764498,64.4355062 L473.336937,64.4355062 L473.336937,61.2316227 L458.764498,61.2316227 L458.764498,51.6615811 L475.070769,51.6615811 Z M501.243365,77.5839112 L495.257519,68.3051318 C494.638294,68.3467406 493.977787,68.3883495 493.317279,68.3883495 L485.638883,68.3883495 L485.638883,77.5839112 L482.336348,77.5839112 L482.336348,48.4576976 L493.317279,48.4576976 C500.541577,48.4576976 504.711028,52.036061 504.711028,58.2357836 C504.711028,63.0624133 502.399253,66.3079057 498.229801,67.6809986 L505,77.5839112 L501.243365,77.5839112 Z M485.638883,65.184466 L493.317279,65.184466 C498.560055,65.184466 501.532337,62.8543689 501.532337,58.3190014 C501.532337,53.9084605 498.560055,51.6615811 493.317279,51.6615811 L485.638883,51.6615811 L485.638883,65.184466 Z" id="SKETCH-DEBUGGER"></path>
            <g id="logo">
                <path d="M64.8752079,20.6557082 L64.8752079,25.0751146 L60.114799,25.0751146 C60.2205859,25.8116823 60.3263728,26.653474 60.3263728,27.3900417 L60.3263728,29.5997449 L64.8752079,29.5997449 L64.8752079,34.1243752 L60.3263728,34.1243752 L60.3263728,36.3340784 C60.3263728,37.0706461 60.2205859,37.8072138 60.114799,38.5437815 L64.8752079,38.5437815 L64.8752079,43.0684118 L58.5279961,43.0684118 C56.200685,47.0669224 51.7576367,49.8027453 46.7856541,49.8027453 C41.8136715,49.8027453 37.3706232,47.0669224 35.0433121,43.0684118 L28.6961003,43.0684118 L28.6961003,38.5437815 L33.4565092,38.5437815 C33.3507223,37.8072138 33.2449355,37.0706461 33.2449355,36.3340784 L33.2449355,34.1243752 L28.6961003,34.1243752 L28.6961003,29.5997449 L33.2449355,29.5997449 L33.2449355,27.3900417 C33.2449355,26.653474 33.3507223,25.8116823 33.4565092,25.0751146 L28.6961003,25.0751146 L28.6961003,20.6557082 L35.0433121,20.6557082 C36.1011808,18.8669009 37.47641,17.3937654 39.1689999,16.2363019 L35.4664596,12.5534632 L38.6400655,9.3967444 L43.6120482,14.2370466 C44.6699168,14.0265987 45.7277855,13.9213747 46.7856541,13.9213747 C47.8435227,13.9213747 48.9013914,14.0265987 49.95926,14.2370466 L54.9312427,9.3967444 L58.1048486,12.5534632 L54.4023083,16.2363019 C56.0948982,17.3937654 57.4701274,18.8669009 58.5279961,20.6557082 L64.8752079,20.6557082 Z M51.3344893,38.5437815 L51.3344893,34.1243752 L42.2368189,34.1243752 L42.2368189,38.5437815 L51.3344893,38.5437815 Z M51.3344893,29.5997449 L51.3344893,25.0751146 L42.2368189,25.0751146 L42.2368189,29.5997449 L51.3344893,29.5997449 Z M2.46342785,11.8449404 L17.2406651,0.796422831 L17.2406651,0.796422831 C17.9321887,0.279390411 18.7724488,7.70812779e-15 19.6358881,7.54951657e-15 L73.8632553,2.48205897e-14 L73.8632553,2.66453526e-14 C74.7463472,2.96205038e-14 75.6046161,0.292235978 76.304216,0.831134115 L90.6084604,11.8496181 L90.6084604,11.8496181 C92.2615107,13.122954 92.6580566,15.4530628 91.519266,17.2015238 L50.1539316,80.7124736 L50.1539316,80.7124736 C48.948272,82.563603 46.4702549,83.0868597 44.6191255,81.8812 C44.1598668,81.5820802 43.7669792,81.1917705 43.4648426,80.7344909 L1.52132812,17.2535747 L1.52132812,17.2535747 C0.353270349,15.4857358 0.766436333,13.1137325 2.46342785,11.8449404 Z" id="Combined-Shape"></path>
            </g>
        </g>
    </g>
</svg>